<?xml version="1.0" encoding="utf-8"?>
<!-- Generator: Adobe Illustrator 16.2.1, SVG Export Plug-In . SVG Version: 6.00 Build 0)  -->
<svg version="1.2" baseProfile="tiny" id="Layer_1" xmlns="http://www.w3.org/2000/svg" xmlns:xlink="http://www.w3.org/1999/xlink"
	 x="0px" y="0px" width="341px" height="395px" viewBox="0 0 341 395" xml:space="preserve">
<g>
	<path d="M197.723,278.358l83.773-74.888c17.135-15.232,36.175-10.154,46.329,2.538c5.077,5.712,7.615,12.692,7.615,19.039
		c0,8.886-4.442,17.771-13.327,26.021L169.164,388.786L16.215,251.068c-8.885-8.25-13.327-17.135-13.327-26.021
		c0-6.347,2.538-13.327,7.615-19.039c10.154-12.692,29.194-17.771,46.329-2.538l83.773,74.888l-3.173-15.866V32.751
		c0-19.039,13.962-29.828,31.732-29.828c17.77,0,31.732,10.789,31.732,29.828v229.741L197.723,278.358z"/>
</g>
</svg>
