<?xml version="1.0" encoding="utf-8"?>
<!-- Generator: Adobe Illustrator 16.2.1, SVG Export Plug-In . SVG Version: 6.00 Build 0)  -->
<svg version="1.2" baseProfile="tiny" id="Layer_1" xmlns="http://www.w3.org/2000/svg" xmlns:xlink="http://www.w3.org/1999/xlink"
	 x="0px" y="0px" width="402px" height="347px" viewBox="-32 22 402 347" xml:space="preserve">
<g>
	<path d="M251.667,167.296L176.78,83.522c-15.233-17.135-10.155-36.175,2.537-46.329c5.713-5.077,12.692-7.615,19.039-7.615
		c8.887,0,17.771,4.442,26.021,13.327l137.718,152.949L224.378,348.804c-8.25,8.885-17.135,13.327-26.021,13.327
		c-6.347,0-13.326-2.538-19.039-7.615c-12.692-10.154-17.771-29.193-2.537-46.329l74.887-83.772l-15.865,3.172H6.061
		c-19.039,0-29.828-13.961-29.828-31.731c0-17.77,10.789-31.732,29.828-31.732h229.741L251.667,167.296z"/>
</g>
</svg>
