<?xml version="1.0" encoding="utf-8"?>
<!-- Generator: Adobe Illustrator 16.2.1, SVG Export Plug-In . SVG Version: 6.00 Build 0)  -->
<svg version="1.2" baseProfile="tiny" id="Layer_1" xmlns="http://www.w3.org/2000/svg" xmlns:xlink="http://www.w3.org/1999/xlink"
	 x="0px" y="0px" width="402px" height="347px" viewBox="0 0 402 347" xml:space="preserve">
<g>
	<path d="M285.572,144.718l-74.887-83.774c-15.233-17.135-10.155-36.175,2.537-46.329C218.936,9.538,225.914,7,232.262,7
		c8.887,0,17.771,4.442,26.021,13.327L396,173.275L258.283,326.227c-8.25,8.885-17.135,13.326-26.021,13.326
		c-6.347,0-13.325-2.538-19.039-7.615c-12.691-10.154-17.771-29.192-2.536-46.328l74.887-83.772l-15.865,3.172H39.966
		c-19.039,0-29.828-13.961-29.828-31.731c0-17.77,10.789-31.731,29.828-31.731h229.741L285.572,144.718z"/>
</g>
</svg>
