<?xml version="1.0" encoding="utf-8"?>
<!-- Generator: Adobe Illustrator 16.2.1, SVG Export Plug-In . SVG Version: 6.00 Build 0)  -->
<svg version="1.2" baseProfile="tiny" id="Layer_1" xmlns="http://www.w3.org/2000/svg" xmlns:xlink="http://www.w3.org/1999/xlink"
	 x="0px" y="0px" width="448px" height="422px" viewBox="0 0 448 422" xml:space="preserve">
<g>
	<path d="M436.343,7.019c-7.519-4.245-16.999-1.57-21.244,5.91l-30.1,53.388h-94.676c-5.488,0-10.583,2.904-13.38,7.657
		l-47.9,80.687h-82.589c-4.198,0-8.067,2.224-10.146,5.847l-41.053,71.129c-0.835-0.169-1.707-0.246-2.581-0.246H19.572
		C10.99,231.39,4,238.383,4,246.988c0,8.587,6.99,15.551,15.572,15.551h73.102c0.479,0,0.949,0,1.438-0.064l36.794,63.782
		l-39.825,65.901c-4.437,7.372-2.073,16.948,5.296,21.415c2.499,1.529,5.28,2.23,8.033,2.23c5.273,0,10.423-2.689,13.365-7.541
		l40.361-66.814h82.646c4.176,0,8.023-2.237,10.111-5.868l47.186-81.687c2.082-3.626,2.082-8.083,0-11.662l-41.783-72.41
		l42.931-72.345h94.871c5.62,0,10.809-3.033,13.55-7.931l34.601-61.312C446.476,20.732,443.81,11.243,436.343,7.019z
		 M264.09,248.052c0,38.872-31.618,70.48-70.496,70.48c-38.859,0-70.479-31.608-70.479-70.48c0-38.885,31.619-70.478,70.479-70.478
		C232.472,177.575,264.09,209.167,264.09,248.052z"/>
	<path d="M193.594,208.706c-21.67,0-39.32,17.673-39.32,39.347c0,21.691,17.65,39.325,39.32,39.325
		c21.708,0,39.349-17.634,39.349-39.325C232.942,226.378,215.302,208.706,193.594,208.706z"/>
</g>
</svg>
