<?xml version="1.0" encoding="utf-8"?>
<!-- Generator: Adobe Illustrator 16.2.1, SVG Export Plug-In . SVG Version: 6.00 Build 0)  -->
<svg version="1.2" baseProfile="tiny" id="Layer_1" xmlns="http://www.w3.org/2000/svg" xmlns:xlink="http://www.w3.org/1999/xlink"
	 x="0px" y="0px" width="612px" height="622.16px" viewBox="0 0 612 622.16" xml:space="preserve">
<path fill="#FFFFFF" d="M163.509,276.236h177.482c9.829,0,17.759-7.813,17.759-17.473c0-9.66-7.93-17.473-17.759-17.473H163.509
	c-9.829,0-17.759,7.813-17.759,17.473C145.75,268.423,153.68,276.236,163.509,276.236z M394.241,136.455H110.259
	c-39.209,0-71.009,31.292-71.009,69.891v314.507c0,38.588,31.799,69.893,71.009,69.893h283.982c39.21,0,71.009-31.305,71.009-69.893
	V206.346C465.25,167.747,433.451,136.455,394.241,136.455z M394.241,520.853H110.259V206.346h283.982V520.853z"/>
<path fill="#7F7F7F" d="M163.509,416.017h177.482c9.829,0,17.759-7.801,17.759-17.473s-7.93-17.473-17.759-17.473H163.509
	c-9.829,0-17.759,7.801-17.759,17.473S153.68,416.017,163.509,416.017z"/>
<path fill="#7F7F7F" d="M163.509,346.126h177.482c9.829,0,17.759-7.801,17.759-17.473c0-9.658-7.93-17.473-17.759-17.473H163.509
	c-9.829,0-17.759,7.812-17.759,17.473C145.75,338.326,153.68,346.126,163.509,346.126z"/>
<path fill="#7F7F7F" d="M163.509,485.908h106.5c9.802,0,17.732-7.801,17.732-17.473s-7.93-17.473-17.732-17.473h-106.5
	c-9.829,0-17.759,7.801-17.759,17.473S153.68,485.908,163.509,485.908z"/>
<path fill="#7F7F7F" d="M464.912,31.619H216.759c-39.209,0-71.009,31.292-71.009,69.891v6.422
	c11.154-3.899,22.985-6.422,35.491-6.422h213c68.901,0,106.5,36.453,106.5,104.836v279.562c39.21,0,71.009-31.305,71.009-69.891
	V136.793C571.75,78.707,523.908,31.619,464.912,31.619z"/>
</svg>
